<mxfile host="app.diagrams.net" modified="2023-03-16T20:32:59.572Z" agent="5.0 (Windows NT 10.0; Win64; x64) AppleWebKit/537.36 (KHTML, like Gecko) Chrome/111.0.0.0 Safari/537.36" etag="zwENMD0DB4fVSSFKMlNO" version="21.0.6" type="github">
  <diagram id="7bwQp1ZC_OXJenUZEJ0d" name="Page-1">
    <mxGraphModel dx="246" dy="957" grid="1" gridSize="10" guides="1" tooltips="1" connect="1" arrows="1" fold="1" page="1" pageScale="1" pageWidth="850" pageHeight="1100" math="0" shadow="0">
      <root>
        <mxCell id="0" />
        <mxCell id="1" parent="0" />
        <mxCell id="UlOduIGSodu-XRL859O8-43" value="" style="shape=cylinder3;whiteSpace=wrap;html=1;boundedLbl=1;backgroundOutline=1;size=15;" parent="1" vertex="1">
          <mxGeometry x="1245" y="40" width="360" height="360" as="geometry" />
        </mxCell>
        <mxCell id="UlOduIGSodu-XRL859O8-9" value="Task&amp;nbsp;" style="swimlane;fontStyle=0;childLayout=stackLayout;horizontal=1;startSize=30;horizontalStack=0;resizeParent=1;resizeParentMax=0;resizeLast=0;collapsible=1;marginBottom=0;whiteSpace=wrap;html=1;fontSize=14;" parent="1" vertex="1">
          <mxGeometry x="910" y="40" width="190" height="330" as="geometry" />
        </mxCell>
        <mxCell id="UlOduIGSodu-XRL859O8-10" value="&lt;u style=&quot;font-size: 14px;&quot;&gt;&lt;font style=&quot;font-size: 14px;&quot;&gt;variables:&lt;/font&gt;&lt;/u&gt;" style="text;strokeColor=none;fillColor=none;align=left;verticalAlign=middle;spacingLeft=4;spacingRight=4;overflow=hidden;points=[[0,0.5],[1,0.5]];portConstraint=eastwest;rotatable=0;whiteSpace=wrap;html=1;fontSize=14;" parent="UlOduIGSodu-XRL859O8-9" vertex="1">
          <mxGeometry y="30" width="190" height="30" as="geometry" />
        </mxCell>
        <mxCell id="UlOduIGSodu-XRL859O8-11" value="&lt;font style=&quot;font-size: 14px;&quot;&gt;description (multi line string)&lt;/font&gt;" style="text;strokeColor=none;fillColor=none;align=left;verticalAlign=middle;spacingLeft=4;spacingRight=4;overflow=hidden;points=[[0,0.5],[1,0.5]];portConstraint=eastwest;rotatable=0;whiteSpace=wrap;html=1;fontSize=14;" parent="UlOduIGSodu-XRL859O8-9" vertex="1">
          <mxGeometry y="60" width="190" height="30" as="geometry" />
        </mxCell>
        <mxCell id="UlOduIGSodu-XRL859O8-12" value="&lt;font style=&quot;font-size: 14px;&quot;&gt;due(date)&lt;/font&gt;" style="text;strokeColor=none;fillColor=none;align=left;verticalAlign=middle;spacingLeft=4;spacingRight=4;overflow=hidden;points=[[0,0.5],[1,0.5]];portConstraint=eastwest;rotatable=0;whiteSpace=wrap;html=1;fontSize=14;" parent="UlOduIGSodu-XRL859O8-9" vertex="1">
          <mxGeometry y="90" width="190" height="30" as="geometry" />
        </mxCell>
        <mxCell id="UlOduIGSodu-XRL859O8-13" value="priority(int)" style="text;strokeColor=none;fillColor=none;align=left;verticalAlign=middle;spacingLeft=4;spacingRight=4;overflow=hidden;points=[[0,0.5],[1,0.5]];portConstraint=eastwest;rotatable=0;whiteSpace=wrap;html=1;fontSize=14;" parent="UlOduIGSodu-XRL859O8-9" vertex="1">
          <mxGeometry y="120" width="190" height="30" as="geometry" />
        </mxCell>
        <mxCell id="UlOduIGSodu-XRL859O8-18" value="progress(int)" style="text;strokeColor=none;fillColor=none;align=left;verticalAlign=middle;spacingLeft=4;spacingRight=4;overflow=hidden;points=[[0,0.5],[1,0.5]];portConstraint=eastwest;rotatable=0;whiteSpace=wrap;html=1;fontSize=14;" parent="UlOduIGSodu-XRL859O8-9" vertex="1">
          <mxGeometry y="150" width="190" height="30" as="geometry" />
        </mxCell>
        <mxCell id="UlOduIGSodu-XRL859O8-19" value="&lt;u style=&quot;font-size: 14px;&quot;&gt;methods:&lt;/u&gt;" style="text;strokeColor=none;fillColor=none;align=left;verticalAlign=middle;spacingLeft=4;spacingRight=4;overflow=hidden;points=[[0,0.5],[1,0.5]];portConstraint=eastwest;rotatable=0;whiteSpace=wrap;html=1;fontSize=14;" parent="UlOduIGSodu-XRL859O8-9" vertex="1">
          <mxGeometry y="180" width="190" height="30" as="geometry" />
        </mxCell>
        <mxCell id="UlOduIGSodu-XRL859O8-22" value="add()" style="text;strokeColor=none;fillColor=none;align=left;verticalAlign=middle;spacingLeft=4;spacingRight=4;overflow=hidden;points=[[0,0.5],[1,0.5]];portConstraint=eastwest;rotatable=0;whiteSpace=wrap;html=1;fontSize=14;" parent="UlOduIGSodu-XRL859O8-9" vertex="1">
          <mxGeometry y="210" width="190" height="30" as="geometry" />
        </mxCell>
        <mxCell id="UlOduIGSodu-XRL859O8-21" value="set()" style="text;strokeColor=none;fillColor=none;align=left;verticalAlign=middle;spacingLeft=4;spacingRight=4;overflow=hidden;points=[[0,0.5],[1,0.5]];portConstraint=eastwest;rotatable=0;whiteSpace=wrap;html=1;fontSize=14;" parent="UlOduIGSodu-XRL859O8-9" vertex="1">
          <mxGeometry y="240" width="190" height="30" as="geometry" />
        </mxCell>
        <mxCell id="UlOduIGSodu-XRL859O8-20" value="delete()" style="text;strokeColor=none;fillColor=none;align=left;verticalAlign=middle;spacingLeft=4;spacingRight=4;overflow=hidden;points=[[0,0.5],[1,0.5]];portConstraint=eastwest;rotatable=0;whiteSpace=wrap;html=1;fontSize=14;" parent="UlOduIGSodu-XRL859O8-9" vertex="1">
          <mxGeometry y="270" width="190" height="30" as="geometry" />
        </mxCell>
        <mxCell id="UlOduIGSodu-XRL859O8-24" value="get()" style="text;strokeColor=none;fillColor=none;align=left;verticalAlign=middle;spacingLeft=4;spacingRight=4;overflow=hidden;points=[[0,0.5],[1,0.5]];portConstraint=eastwest;rotatable=0;whiteSpace=wrap;html=1;fontSize=14;" parent="UlOduIGSodu-XRL859O8-9" vertex="1">
          <mxGeometry y="300" width="190" height="30" as="geometry" />
        </mxCell>
        <mxCell id="UlOduIGSodu-XRL859O8-33" style="edgeStyle=orthogonalEdgeStyle;rounded=0;orthogonalLoop=1;jettySize=auto;html=1;entryX=0;entryY=0.5;entryDx=0;entryDy=0;entryPerimeter=0;" parent="1" source="UlOduIGSodu-XRL859O8-19" target="UlOduIGSodu-XRL859O8-43" edge="1">
          <mxGeometry relative="1" as="geometry" />
        </mxCell>
        <mxCell id="UlOduIGSodu-XRL859O8-27" value="&lt;b&gt;&lt;font style=&quot;font-size: 18px;&quot;&gt;&lt;u&gt;All Tasks&lt;br&gt;&lt;br&gt;&lt;/u&gt;&lt;/font&gt;&lt;/b&gt;" style="html=1;whiteSpace=wrap;" parent="1" vertex="1">
          <mxGeometry x="1265" y="90" width="320" height="230" as="geometry" />
        </mxCell>
        <mxCell id="pVy_YilpjfzHFeGio6pl-2" value="***assign unique id&#39;s to each task to create text files" style="text;html=1;strokeColor=none;fillColor=none;align=center;verticalAlign=middle;whiteSpace=wrap;rounded=0;" vertex="1" parent="1">
          <mxGeometry x="930" y="500" width="150" height="75" as="geometry" />
        </mxCell>
        <mxCell id="pVy_YilpjfzHFeGio6pl-3" value="" style="endArrow=classic;startArrow=classic;html=1;rounded=0;exitX=0.5;exitY=1;exitDx=0;exitDy=0;exitPerimeter=0;" edge="1" parent="1" source="UlOduIGSodu-XRL859O8-43">
          <mxGeometry width="50" height="50" relative="1" as="geometry">
            <mxPoint x="1320" y="360" as="sourcePoint" />
            <mxPoint x="1425" y="510" as="targetPoint" />
            <Array as="points" />
          </mxGeometry>
        </mxCell>
        <mxCell id="pVy_YilpjfzHFeGio6pl-4" value="&lt;font style=&quot;font-size: 23px;&quot;&gt;&lt;b&gt;Display&lt;/b&gt;&lt;/font&gt;:&lt;br&gt;&lt;br&gt;&lt;font style=&quot;font-size: 16px;&quot;&gt;&lt;font style=&quot;border-color: var(--border-color); font-size: 16px;&quot;&gt;***sorts tasks in order of: due date first, then in order of priority on a scale of (0-2)&lt;br style=&quot;border-color: var(--border-color);&quot;&gt;&lt;br style=&quot;border-color: var(--border-color);&quot;&gt;***when a task is viewed, then you can see its description as well as all other&amp;nbsp;&lt;br style=&quot;border-color: var(--border-color);&quot;&gt;&lt;br style=&quot;border-color: var(--border-color);&quot;&gt;***ability to retrieve and open .txt files for each task&#39;s description&lt;br style=&quot;border-color: var(--border-color);&quot;&gt;&lt;/font&gt;&lt;br style=&quot;border-color: var(--border-color);&quot;&gt;***displays all tasks as a home screen with the select&lt;/font&gt;" style="whiteSpace=wrap;html=1;aspect=fixed;align=center;" vertex="1" parent="1">
          <mxGeometry x="1205" y="510" width="440" height="440" as="geometry" />
        </mxCell>
        <mxCell id="pVy_YilpjfzHFeGio6pl-5" value="**writes description to a .txt file&amp;nbsp;&lt;br&gt;&lt;br&gt;**send all text files to a folder&amp;nbsp;&lt;br&gt;&lt;br&gt;" style="text;html=1;strokeColor=none;fillColor=none;align=center;verticalAlign=middle;whiteSpace=wrap;rounded=0;" vertex="1" parent="1">
          <mxGeometry x="930" y="630" width="150" height="40" as="geometry" />
        </mxCell>
      </root>
    </mxGraphModel>
  </diagram>
</mxfile>
